<?xml version="1.0" encoding="UTF-8" standalone="no"?>
<!-- Created with Inkscape (http://www.inkscape.org/) -->

<svg
   width="171.96097"
   height="64.093285"
   id="svg2"
   version="1.1"
   inkscape:version="1.4.3 (0d15f75042, 2025-12-25)"
   sodipodi:docname="FBL_web_logo.svg"
   xmlns:inkscape="http://www.inkscape.org/namespaces/inkscape"
   xmlns:sodipodi="http://sodipodi.sourceforge.net/DTD/sodipodi-0.dtd"
   xmlns="http://www.w3.org/2000/svg"
   xmlns:svg="http://www.w3.org/2000/svg"
   xmlns:rdf="http://www.w3.org/1999/02/22-rdf-syntax-ns#"
   xmlns:cc="http://creativecommons.org/ns#"
   xmlns:dc="http://purl.org/dc/elements/1.1/">
  <defs
     id="defs4">
    <symbol
       id="*PAPER_SPACE" />
    <symbol
       id="*MODEL_SPACE" />
    <pattern
       id="Hatch"
       x="0"
       y="0"
       patternUnits="userSpaceOnUse"
       width="8"
       height="8">
      <path
         id="path2995"
         d="M8 4 l-4,4"
         stroke-width="0.25"
         stroke="#000000"
         linecap="square" />
      <path
         id="path2997"
         d="M6 2 l-4,4"
         stroke-width="0.25"
         stroke="#000000"
         linecap="square" />
      <path
         id="path2999"
         d="M4 0 l-4,4"
         stroke-width="0.25"
         stroke="#000000"
         linecap="square" />
    </pattern>
    <marker
       orient="auto"
       id="DistanceX"
       style="overflow:visible"
       refX="0"
       refY="0">
      <path
         id="path2992"
         d="M 3,-3 -3,3 M 0,-5 V 5"
         style="stroke:#000000;stroke-width:0.5"
         inkscape:connector-curvature="0" />
    </marker>
    <clipPath
       id="clipPath3081"
       clipPathUnits="userSpaceOnUse">
      <path
         id="path3083"
         d="M 0,0 H 38.461 V 33.442 H 0 Z"
         inkscape:connector-curvature="0" />
    </clipPath>
    <clipPath
       id="clipPath3026"
       clipPathUnits="userSpaceOnUse">
      <path
         id="path3028"
         d="M 0,0 H 38.461 V 33.442 H 0 Z"
         inkscape:connector-curvature="0" />
    </clipPath>
    <clipPath
       id="clipPath3076"
       clipPathUnits="userSpaceOnUse">
      <path
         id="path3078"
         d="M 0,0 H 38.461 V 33.442 H 0 Z"
         inkscape:connector-curvature="0" />
    </clipPath>
    <clipPath
       id="clipPath3126"
       clipPathUnits="userSpaceOnUse">
      <path
         id="path3128"
         d="M 0,0 H 38.461 V 33.442 H 0 Z"
         inkscape:connector-curvature="0" />
    </clipPath>
    <clipPath
       id="clipPath3176"
       clipPathUnits="userSpaceOnUse">
      <path
         id="path3178"
         d="M 0,0 H 38.461 V 33.442 H 0 Z"
         inkscape:connector-curvature="0" />
    </clipPath>
    <clipPath
       id="clipPath3030"
       clipPathUnits="userSpaceOnUse">
      <path
         id="path3032"
         d="M 0,0 H 38.461 V 33.442 H 0 Z"
         inkscape:connector-curvature="0" />
    </clipPath>
  </defs>
  <sodipodi:namedview
     id="base"
     pagecolor="#ffffff"
     bordercolor="#666666"
     borderopacity="1.0"
     inkscape:pageopacity="0.0"
     inkscape:pageshadow="2"
     inkscape:zoom="3.959798"
     inkscape:cx="82.706239"
     inkscape:cy="45.078057"
     inkscape:document-units="mm"
     inkscape:current-layer="layer1"
     showgrid="true"
     inkscape:window-width="1920"
     inkscape:window-height="1008"
     inkscape:window-x="0"
     inkscape:window-y="0"
     inkscape:window-maximized="1"
     units="mm"
     inkscape:snap-grids="true"
     inkscape:snap-bbox="true"
     inkscape:snap-nodes="false"
     showguides="true"
     inkscape:guide-bbox="true"
     inkscape:showpageshadow="0"
     inkscape:pagecheckerboard="0"
     inkscape:deskcolor="#505050">
    <inkscape:grid
       type="xygrid"
       id="grid3103"
       empspacing="5"
       visible="true"
       enabled="true"
       snapvisiblegridlinesonly="true"
       units="mm"
       spacingx="2mm"
       spacingy="2mm"
       originx="-6.8318262"
       originy="-983.07018" />
  </sodipodi:namedview>
  <metadata
     id="metadata7">
    <rdf:RDF>
      <cc:Work
         rdf:about="">
        <dc:format>image/svg+xml</dc:format>
        <dc:type
           rdf:resource="http://purl.org/dc/dcmitype/StillImage" />
      </cc:Work>
    </rdf:RDF>
  </metadata>
  <g
     inkscape:label="Layer 1"
     inkscape:groupmode="layer"
     id="layer1"
     transform="translate(-6.8318262,-983.06804)">
    <g
       transform="matrix(2.4269686,0,0,-2.4269686,42.186082,2921.0651)"
       id="g3113">
      <path
         inkscape:connector-curvature="0"
         id="path3087"
         style="font-variant:normal;font-weight:normal;font-size:12.0002px;font-family:FUTURADISPEE;-inkscape-font-specification:FUTURADISPEE;writing-mode:lr-tb;fill:#000000;fill-opacity:1;fill-rule:nonzero;stroke:none"
         d="m 27.474114,796.43125 -0.580042,-1.74027 h -1.35354 l -0.462861,-1.3887 h 1.35354 l -0.580042,-1.74027 h -1.35354 l -1.042903,-3.12897 h -2.14458 l 2.665848,7.99821 z" />
      <path
         inkscape:connector-curvature="0"
         id="path3089"
         style="font-variant:normal;font-weight:normal;font-size:12.0002px;font-family:FUTURADISPEE;-inkscape-font-specification:FUTURADISPEE;writing-mode:lr-tb;fill:#000000;fill-opacity:1;fill-rule:nonzero;stroke:none"
         d="m 27.220285,794.57965 h 1.91605 l -2.048699,-6.14661 h -1.91605 z m 0.617149,1.8516 h 1.91605 l -0.435521,-1.30667 h -1.91605 z" />
      <path
         inkscape:connector-curvature="0"
         id="path3091"
         style="font-variant:normal;font-weight:normal;font-size:12.0002px;font-family:FUTURADISPEE;-inkscape-font-specification:FUTURADISPEE;writing-mode:lr-tb;fill:#000000;fill-opacity:1;fill-rule:nonzero;stroke:none"
         d="m 29.693045,794.57965 h 1.91019 l -0.263654,-0.79103 c 0.279941,0.30078 0.533195,0.5127 0.759772,0.63576 0.22655,0.12304 0.474605,0.18456 0.744148,0.18457 0.101557,-1e-5 0.209634,-0.0215 0.324212,-0.0645 l -0.835896,-2.08597 c -0.385436,0.22656 -0.800808,0.41602 -1.246139,0.56837 L 29.554523,788.433 h -1.91019 z" />
      <path
         inkscape:connector-curvature="0"
         id="path3093"
         style="font-variant:normal;font-weight:normal;font-size:12.0002px;font-family:FUTURADISPEE;-inkscape-font-specification:FUTURADISPEE;writing-mode:lr-tb;fill:#000000;fill-opacity:1;fill-rule:nonzero;stroke:none"
         d="m 36.902125,790.73582 h -2.76568 l -0.107414,-0.32227 c -0.07161,-0.21485 -0.07423,-0.35743 -0.0078,-0.42774 0.06637,-0.0703 0.234376,-0.10547 0.503916,-0.10547 h 2.08598 l -0.482393,-1.4473 h -3.211 c -0.600337,-0.008 -0.973322,0.0801 -1.119174,0.26368 -0.07162,0.10157 -0.09408,0.23926 -0.06739,0.4131 0.02674,0.17383 0.11943,0.49903 0.278273,0.9756 l 1.083917,3.25202 c 0.166652,0.5 0.380833,0.83204 0.642559,0.99611 0.261712,0.16406 0.708986,0.2461 1.341816,0.2461 h 1.51175 c 0.657494,-0.008 1.061866,-0.10157 1.212928,-0.28125 0.08983,-0.0938 0.131502,-0.20314 0.125009,-0.32814 -0.0066,-0.125 -0.06774,-0.36134 -0.18361,-0.70899 z m -2.377032,1.16604 h 0.85549 l 0.185538,0.55666 c 0.06509,0.19531 0.08527,0.34375 0.06053,0.44532 -0.03253,0.14843 -0.121099,0.22265 -0.265636,0.22266 -0.285163,-10e-6 -0.501957,-0.22267 -0.650381,-0.66798 z" />
      <path
         inkscape:connector-curvature="0"
         id="path3095"
         style="font-variant:normal;font-weight:normal;font-size:12.0002px;font-family:FUTURADISPEE;-inkscape-font-specification:FUTURADISPEE;writing-mode:lr-tb;fill:#000000;fill-opacity:1;fill-rule:nonzero;stroke:none"
         d="m 39.315964,796.43125 h 1.91605 l -0.831978,-2.49614 c 0.06773,0.0625 0.13471,0.12304 0.201172,0.18164 0.234368,0.21094 0.428707,0.34571 0.583009,0.40431 0.154302,0.0586 0.391607,0.0879 0.711927,0.0879 h 0.41603 c 0.394527,-10e-6 0.638036,-0.0986 0.730485,-0.2959 0.09246,-0.19728 0.0573,-0.54006 -0.105444,-1.02835 l -1.095633,-3.28717 c -0.101558,-0.3047 -0.206664,-0.56154 -0.315418,-0.77052 -0.108758,-0.20899 -0.221716,-0.37208 -0.338867,-0.48927 -0.128866,-0.12891 -0.27734,-0.2168 -0.445316,-0.26368 -0.167982,-0.0469 -0.421871,-0.0703 -0.761721,-0.0703 h -0.37501 c -0.28516,0 -0.479518,0.0439 -0.583017,0.13184 -0.103522,0.0879 -0.181334,0.27637 -0.233426,0.56544 l -0.222644,-0.66799 h -1.91605 z m 0.806819,-5.84191 0.63277,1.89847 c 0.154937,0.46485 0.09178,0.69728 -0.189472,0.69728 -0.28126,0 -0.499361,-0.23243 -0.654298,-0.69728 l -0.63277,-1.89847 c -0.153637,-0.46095 -0.08982,-0.69142 0.191436,-0.69142 0.28125,0 0.498697,0.23047 0.652334,0.69142 z" />
      <path
         inkscape:connector-curvature="0"
         id="path3097"
         style="font-variant:normal;font-weight:normal;font-size:12.0002px;font-family:FUTURADISPEE;-inkscape-font-specification:FUTURADISPEE;writing-mode:lr-tb;fill:#000000;fill-opacity:1;fill-rule:nonzero;stroke:none"
         d="m 48.542775,794.57965 -2.048699,-6.14661 h -1.91019 l 0.222645,0.66799 c -0.253912,-0.29298 -0.45964,-0.48244 -0.617181,-0.56837 -0.157551,-0.0859 -0.380867,-0.12891 -0.669937,-0.12891 h -0.37501 c -0.33985,0 -0.57815,0.0234 -0.714858,0.0703 -0.136718,0.0469 -0.226571,0.13477 -0.269544,0.26368 -0.03904,0.11719 -0.0433,0.28028 -0.01271,0.48927 0.03055,0.20898 0.09666,0.46582 0.198219,0.77052 l 1.095632,3.28717 c 0.09635,0.28907 0.186859,0.50782 0.271438,0.65627 0.08467,0.14843 0.188186,0.27148 0.31055,0.36915 0.265618,0.19921 0.574208,0.29882 0.925792,0.29883 h 0.41602 c 0.347656,-10e-6 0.573904,-0.0332 0.678732,-0.0996 0.104819,-0.0664 0.229494,-0.25783 0.374046,-0.57423 l 0.214829,0.64454 z m -3.451182,-2.09184 -0.63277,-1.89847 c -0.153637,-0.46095 -0.08982,-0.69142 0.191436,-0.69142 0.28125,0 0.498697,0.23047 0.652334,0.69142 l 0.63277,1.89847 c 0.154937,0.46485 0.09178,0.69728 -0.189472,0.69728 -0.28126,0 -0.499361,-0.23243 -0.654298,-0.69728 z" />
      <path
         inkscape:connector-curvature="0"
         id="path3099"
         style="font-variant:normal;font-weight:normal;font-size:12.0002px;font-family:FUTURADISPEE;-inkscape-font-specification:FUTURADISPEE;writing-mode:lr-tb;fill:#000000;fill-opacity:1;fill-rule:nonzero;stroke:none"
         d="m 49.704694,796.43125 h 1.91605 l -2.665848,-7.99821 h -1.91605 z" />
      <path
         inkscape:connector-curvature="0"
         id="path3101"
         style="font-variant:normal;font-weight:normal;font-size:12.0002px;font-family:FUTURADISPEE;-inkscape-font-specification:FUTURADISPEE;writing-mode:lr-tb;fill:#000000;fill-opacity:1;fill-rule:nonzero;stroke:none"
         d="m 52.177454,796.43125 h 1.91606 l -2.665848,-7.99821 h -1.91606 z" />
    </g>
    <g
       transform="matrix(2.4269686,0,0,-2.4269686,37.005185,2916.1111)"
       id="g3123">
      <g
         transform="matrix(1,0,-0.33330556,-1,0,0)"
         style="font-size:11.3843px"
         id="text3020">
        <path
           inkscape:connector-curvature="0"
           d="m -232.70077,-782.03123 v 1.74027 h -1.88675 v 1.3887 h 0.38672 c 0.42188,10e-6 0.73927,0.041 0.95217,0.12305 0.21289,0.082 0.37989,0.22657 0.50099,0.4336 0.0976,0.16407 0.16601,0.36525 0.20508,0.60353 0.0391,0.23829 0.0586,0.55861 0.0586,0.96096 v 0.4922 c 0,0.4961 -0.0244,0.8799 -0.0732,1.15139 -0.0488,0.27149 -0.13379,0.49122 -0.25489,0.65919 -0.14063,0.19922 -0.30665,0.32129 -0.49805,0.36622 -0.19142,0.0449 -0.65432,0.0713 -1.3887,0.0791 h -2.00395 v -1.74027 h 2.01567 v -1.3887 h -0.334 c -0.41407,0 -0.72755,-0.0371 -0.94044,-0.11133 -0.2129,-0.0742 -0.37794,-0.20312 -0.49513,-0.38673 -0.10938,-0.17187 -0.18262,-0.37402 -0.21973,-0.60645 -0.0371,-0.23243 -0.0557,-0.59474 -0.0557,-1.08694 v -0.4922 c 0,-0.51953 0.0391,-0.93165 0.11719,-1.23635 0.0781,-0.30469 0.20313,-0.5293 0.37501,-0.67384 0.13672,-0.11328 0.31153,-0.1875 0.52442,-0.22266 0.2129,-0.0352 0.6006,-0.0527 1.16311,-0.0527 z"
           style="font-variant:normal;font-weight:normal;font-size:12.0002px;font-family:FUTURADISPEE;-inkscape-font-specification:FUTURADISPEE;writing-mode:lr-tb;fill:#000000;fill-opacity:1;fill-rule:nonzero;stroke:none"
           id="path3068" />
        <path
           inkscape:connector-curvature="0"
           d="m -232.01542,-782.03123 h 1.91605 v 7.99821 h -1.91605 z"
           style="font-variant:normal;font-weight:normal;font-size:12.0002px;font-family:FUTURADISPEE;-inkscape-font-specification:FUTURADISPEE;writing-mode:lr-tb;fill:#000000;fill-opacity:1;fill-rule:nonzero;stroke:none"
           id="path3070" />
        <path
           inkscape:connector-curvature="0"
           d="m -227.73793,-780.17963 h 1.03127 c 0.45703,10e-6 0.80177,0.0235 1.0342,0.0703 0.23242,0.0469 0.40918,0.12696 0.53028,0.24024 0.11328,0.10938 0.18457,0.24317 0.21387,0.40137 0.0293,0.15821 0.0459,0.49123 0.0498,0.99904 v 2.72467 c -0.004,0.50782 -0.0205,0.84084 -0.0498,0.99904 -0.0293,0.15821 -0.10059,0.292 -0.21387,0.40138 -0.1211,0.11328 -0.29786,0.19336 -0.53028,0.24024 -0.23243,0.0469 -0.57717,0.0703 -1.0342,0.0703 h -1.03127 c -0.45705,0 -0.80178,-0.0234 -1.0342,-0.0703 -0.23243,-0.0469 -0.40919,-0.12696 -0.53029,-0.24024 -0.11328,-0.10938 -0.18457,-0.24317 -0.21387,-0.40138 -0.0293,-0.1582 -0.0459,-0.49122 -0.0498,-0.99904 v -2.72467 c 0.004,-0.51172 0.0205,-0.84473 0.0498,-0.99904 0.0293,-0.15429 0.10059,-0.28809 0.21387,-0.40137 0.1211,-0.11328 0.29786,-0.19336 0.53029,-0.24024 0.23242,-0.0469 0.57715,-0.0703 1.0342,-0.0703 z m 0.94923,4.05477 v -1.93363 c 0,-0.44141 -0.14649,-0.66212 -0.43946,-0.66212 -0.28907,0 -0.4336,0.22071 -0.4336,0.66212 v 1.93363 c 0,0.44142 0.14453,0.66213 0.4336,0.66212 0.29297,1e-5 0.43946,-0.2207 0.43946,-0.66212 z"
           style="font-variant:normal;font-weight:normal;font-size:12.0002px;font-family:FUTURADISPEE;-inkscape-font-specification:FUTURADISPEE;writing-mode:lr-tb;fill:#000000;fill-opacity:1;fill-rule:nonzero;stroke:none"
           id="path3072" />
        <path
           inkscape:connector-curvature="0"
           d="m -222.0249,-775.62094 c 0.16407,-0.31251 0.27637,-0.63185 0.33692,-0.95803 0.0606,-0.32617 0.0908,-0.78614 0.0908,-1.37991 v -2.22075 h 1.91019 v 2.23247 c -0.0156,0.89846 -0.14454,1.62894 -0.38673,2.19145 -0.30469,0.71876 -0.6465,1.29299 -1.02541,1.72269 h -1.85746 c -0.47266,-0.5547 -0.82618,-1.15725 -1.06056,-1.80765 -0.23438,-0.6504 -0.35157,-1.35257 -0.35157,-2.10649 v -2.23247 h 1.91019 v 2.22075 c 0,0.59767 0.0303,1.05959 0.0908,1.38577 0.0606,0.32618 0.17481,0.64357 0.34278,0.95217 z"
           style="font-variant:normal;font-weight:normal;font-size:12.0002px;font-family:FUTURADISPEE;-inkscape-font-specification:FUTURADISPEE;writing-mode:lr-tb;fill:#000000;fill-opacity:1;fill-rule:nonzero;stroke:none"
           id="path3074" />
        <path
           inkscape:connector-curvature="0"
           d="m -214.50147,-776.3358 h -2.76568 v 0.32227 c -1e-5,0.21485 0.0449,0.35743 0.13476,0.42774 0.0898,0.0703 0.26954,0.10548 0.53908,0.10548 h 2.08598 v 1.44729 h -3.211 c -0.59767,0.008 -1.00003,-0.0801 -1.20706,-0.26368 -0.10547,-0.10156 -0.17383,-0.23926 -0.20508,-0.41309 -0.0312,-0.17383 -0.0469,-0.49903 -0.0469,-0.97561 v -3.25202 c 0,-0.5 0.10352,-0.83204 0.31056,-0.99611 0.20703,-0.16406 0.62696,-0.24609 1.25979,-0.2461 h 1.51175 c 0.66016,0.008 1.09572,0.10157 1.30666,0.28126 0.12109,0.0938 0.19922,0.20313 0.23438,0.32813 0.0352,0.12501 0.0527,0.36134 0.0527,0.709 z m -2.76568,-1.16604 h 0.85548 v -0.55665 c 0,-0.19531 -0.0293,-0.34375 -0.0879,-0.44532 -0.082,-0.14844 -0.19532,-0.22266 -0.33985,-0.22266 -0.28516,0 -0.42775,0.22266 -0.42774,0.66798 z"
           style="font-variant:normal;font-weight:normal;font-size:12.0002px;font-family:FUTURADISPEE;-inkscape-font-specification:FUTURADISPEE;writing-mode:lr-tb;fill:#000000;fill-opacity:1;fill-rule:nonzero;stroke:none"
           id="path3076" />
        <path
           inkscape:connector-curvature="0"
           d="m -213.98597,-780.17963 h 1.91605 v 0.66213 c 0.16016,-0.26954 0.33399,-0.45216 0.5215,-0.54787 0.1875,-0.0957 0.46485,-0.14355 0.83205,-0.14355 0.3789,0 0.66993,0.0391 0.87306,0.11718 0.20312,0.0781 0.35156,0.209 0.44532,0.39259 0.0547,0.10938 0.0869,0.23048 0.0967,0.36329 0.01,0.13282 0.0166,0.54103 0.0205,1.22463 v 4.07821 h -1.91019 v -4.06063 c -1e-5,-0.46094 -0.14454,-0.69141 -0.43361,-0.69142 -0.29688,10e-6 -0.44532,0.23829 -0.44532,0.71486 v 4.03719 h -1.91605 z"
           style="font-variant:normal;font-weight:normal;font-size:12.0002px;font-family:FUTURADISPEE;-inkscape-font-specification:FUTURADISPEE;writing-mode:lr-tb;fill:#000000;fill-opacity:1;fill-rule:nonzero;stroke:none"
           id="path3079" />
        <path
           inkscape:connector-curvature="0"
           d="m -208.73588,-780.17963 h 1.91605 v 6.14661 h -1.91605 z m 0,-1.8516 h 1.91605 v 1.30667 h -1.91605 z"
           style="font-variant:normal;font-weight:normal;font-size:12.0002px;font-family:FUTURADISPEE;-inkscape-font-specification:FUTURADISPEE;writing-mode:lr-tb;fill:#000000;fill-opacity:1;fill-rule:nonzero;stroke:none"
           id="path3081" />
        <path
           inkscape:connector-curvature="0"
           d="m -201.61652,-780.17963 v 6.14661 h -1.9102 v -0.66798 c -0.15625,0.29297 -0.29884,0.48243 -0.42774,0.56837 -0.12891,0.0859 -0.3379,0.12891 -0.62697,0.12891 h -0.375 c -0.33986,0 -0.58596,-0.0234 -0.7383,-0.0703 -0.15235,-0.0469 -0.27149,-0.13476 -0.35743,-0.26367 -0.0781,-0.11719 -0.13672,-0.28028 -0.17578,-0.48927 -0.0391,-0.20899 -0.0586,-0.46583 -0.0586,-0.77052 v -3.28718 c 0,-0.28906 0.0176,-0.50782 0.0527,-0.65626 0.0352,-0.14844 0.0977,-0.27149 0.1875,-0.36915 0.19922,-0.19922 0.47462,-0.29883 0.82619,-0.29883 h 0.41602 c 0.34766,0 0.58497,0.0332 0.71193,0.0996 0.12695,0.0664 0.31543,0.25782 0.56544,0.57423 v -0.64455 z m -2.75397,2.09184 v 1.89848 c 0,0.46095 0.14063,0.69142 0.42189,0.69142 0.28125,0 0.42188,-0.23047 0.42188,-0.69142 v -1.89848 c 0,-0.46485 -0.14063,-0.69727 -0.42188,-0.69728 -0.28126,10e-6 -0.42189,0.23243 -0.42189,0.69728 z"
           style="font-variant:normal;font-weight:normal;font-size:12.0002px;font-family:FUTURADISPEE;-inkscape-font-specification:FUTURADISPEE;writing-mode:lr-tb;fill:#000000;fill-opacity:1;fill-rule:nonzero;stroke:none"
           id="path3084" />
      </g>
    </g>
    <g
       id="g923"
       transform="translate(-0.25479282,1.7366197)">
      <g
         transform="matrix(1.7999999,0,0,1.7999974,-120.47243,-976.53083)"
         id="g3818">
        <g
           id="g3811">
          <g
             transform="matrix(0.90676224,0,0,0.90676224,66.783772,118.48756)"
             id="g3030">
            <g
               id="g3844"
               transform="matrix(0.0788016,0,0,0.0788016,-3.8094952,1050.1279)"
               style="fill:#000000;fill-opacity:1">
              <path
                 style="fill:#000000;fill-opacity:1"
                 d="m 378.3259,734.97594 c -43.16091,-1.52808 -83.37928,-15.37486 -118.94505,-40.95156 -2.84973,-2.04933 -5.58682,-3.84179 -6.08242,-3.98318 -1.02226,-0.29164 1.06587,-0.10489 9.46154,0.84627 10.10611,1.14489 16.74679,1.5753 28.9058,1.87352 l 11.78492,0.28903 4.88541,-3.55277 c 10.92463,-7.94471 27.35333,-20.81277 36.64914,-28.70612 8.68743,-7.37671 13.06841,-11.28176 12.87442,-11.47577 -0.52348,-0.52349 -20.40865,-1.44072 -31.34695,-1.44595 -38.46483,-0.0185 -75.33858,5.13622 -95.29121,13.32086 -2.72582,1.11817 -5.17229,2.07248 -5.4366,2.12078 -0.57125,0.10435 -5.69094,-5.74716 -10.66525,-12.18971 -1.96112,-2.53997 -3.76549,-4.61813 -4.00971,-4.61813 -1.03477,0 -8.84567,8.426 -10.00144,10.78899 -2.89484,5.91869 -0.79312,11.96349 6.00861,17.28146 l 1.57692,1.23293 -4.50549,-1.55647 c -5.57179,-1.92484 -13.81012,-5.31594 -15.3235,-6.30751 -1.74076,-1.14061 -4.21624,-5.21025 -4.68687,-7.70512 -1.16371,-6.16897 3.35612,-12.95676 12.80158,-19.22511 15.14347,-10.04979 44.06689,-18.18781 80.52957,-22.65816 22.10823,-2.71048 37.7546,-3.59359 63.87153,-3.605 21.4599,-0.009 29.3163,0.29252 45.13879,1.73455 l 5.87831,0.53573 7.71947,-8.11283 c 4.24571,-4.46206 8.84082,-9.33414 10.21136,-10.82683 8.77888,-9.56132 23.69943,-27.1344 23.34208,-27.49175 -0.32454,-0.32453 -16.09074,-1.9761 -25.60869,-2.68262 -71.51483,-5.30851 -153.28849,3.33011 -204.92729,21.64864 -3.12019,1.10686 -8.57018,3.25504 -12.11109,4.77373 -3.54091,1.51869 -6.5573,2.64197 -6.70309,2.49618 -0.527,-0.52701 -5.94692,-16.90936 -7.41366,-22.40872 -0.82615,-3.09753 -1.53418,-5.68614 -1.57339,-5.75247 -0.13919,-0.23545 -11.75905,6.08267 -15.81737,8.60046 -14.70065,9.12027 -26.08261,22.07266 -28.57719,32.52014 -0.29585,1.23901 -0.6901,2.42238 -0.87612,2.6297 -0.3452,0.38473 -7.38527,-13.52953 -8.7809,-17.3549 l -0.76974,-2.10982 2.05956,-2.62095 c 17.75301,-22.59211 57.42196,-40.16624 118.26089,-52.3919 48.80374,-9.80718 115.78852,-15.05112 167.67993,-13.12692 21.98112,0.81509 47.18164,2.59086 55.24578,3.89292 1.36644,0.22063 1.51031,0.0685 5.22782,-5.52695 10.33162,-15.55082 25.62273,-41.23075 24.95089,-41.90259 -0.33417,-0.33417 -9.71826,-1.30797 -20.65492,-2.14339 -38.00851,-2.90336 -79.30417,-3.21247 -117.9344,-0.88277 -62.88469,3.79242 -120.13725,13.2155 -165.51603,27.24194 -7.20325,2.2265 -15.62157,5.07572 -19.39514,6.56436 -0.834,0.32901 -0.85161,0.11649 -0.54734,-6.60725 0.17291,-3.82096 0.59071,-9.27879 0.92843,-12.12851 0.33774,-2.84973 0.56506,-5.23408 0.50518,-5.29858 -0.21825,-0.23503 -13.78585,6.05509 -23.22785,10.76875 -9.52256,4.75387 -22.30459,11.87865 -29.62363,16.51239 -2.04436,1.29431 -3.71703,2.15485 -3.71703,1.91233 0,-0.76993 2.64939,-10.44648 4.01346,-14.65863 l 1.31316,-4.05494 11.19109,-5.72806 c 66.54552,-34.06075 157.62415,-56.75574 251.78449,-62.73972 41.59472,-2.64338 86.08793,-1.89177 120.97253,2.04355 14.28909,1.61194 12.90123,1.56834 13.51336,0.42457 1.98466,-3.70838 10.87736,-28.93457 13.97881,-39.65419 3.36862,-11.64294 4.03192,-14.45314 3.45706,-14.64696 -0.69348,-0.23382 -21.67112,-1.82637 -33.8778,-2.57189 -12.98716,-0.79318 -72.10892,-0.78587 -85.82967,0.0106 -61.22311,3.55397 -110.70258,10.48293 -158.36814,22.17741 -21.566,5.2911 -49.72245,13.83083 -61.65238,18.6989 -0.7173,0.29269 -0.66497,0.0158 0.39075,-2.06754 1.62727,-3.21127 7.71544,-13.33861 10.54774,-17.5456 1.25122,-1.85851 2.07716,-3.44541 1.83542,-3.52644 -0.67782,-0.22719 -20.61276,9.66726 -27.94021,13.86776 -3.59313,2.05979 -8.76319,5.19731 -11.48901,6.97227 -2.72582,1.77496 -5.26016,3.40937 -5.63187,3.63201 -2.25683,1.35178 17.5033,-21.25106 24.85028,-28.42528 l 4.66071,-4.55112 6.98352,-2.95976 c 37.21224,-15.77134 83.2825,-28.64213 130.88461,-36.56564 16.00117,-2.66344 26.55603,-4.20107 41.67583,-6.07134 50.44877,-6.24035 110.70262,-7.90897 162.77937,-4.50787 4.40863,0.28792 8.10313,0.43604 8.21005,0.32915 0.62788,-0.62789 1.20031,-9.67053 1.42829,-22.56312 l 0.261,-14.75947 5.68539,0.24999 c 3.12695,0.13749 6.52824,0.35164 7.55842,0.47587 l 1.87307,0.22588 0.31043,2.67455 c 0.79909,6.88517 0.17103,34.3017 -0.93787,40.93901 l -0.25555,1.52986 -4.36014,-0.28474 c -17.54372,-1.1457 -42.52862,-2.09569 -42.31989,-1.60911 0.0625,0.14562 3.15479,2.7014 6.87183,5.6795 18.56263,14.87245 33.62036,31.34926 46.44768,50.82495 41.38144,62.82948 47.25836,142.04235 15.6438,210.85714 -10.32169,22.4671 -25.2182,43.74606 -43.39107,61.98218 -11.72626,11.76705 -20.94324,19.33092 -34.24437,28.10235 -27.57194,18.18233 -57.7778,29.50504 -90.10989,33.77782 -9.70671,1.28276 -25.95411,2.10605 -35.14286,1.78071 z m -127.38347,-45.4922 c 0.14971,-0.14972 0.53831,-0.16571 0.86355,-0.0356 0.35942,0.14382 0.25266,0.2506 -0.27221,0.27223 -0.47495,0.0194 -0.74105,-0.087 -0.59134,-0.23668 z m 347.2516,-5.96564 c 0,-0.43613 1.49592,-1.87203 1.9503,-1.87203 0.67398,0 0.24348,1.35151 -0.56905,1.78634 -1.05753,0.56598 -1.38125,0.58607 -1.38125,0.0857 z M 315.7598,296.25007 c 0.4167,-0.46666 11.27152,-5.74144 19.08808,-9.27564 47.70958,-21.57154 95.77653,-35.77225 144.85165,-42.79439 19.83472,-2.83814 34.88021,-4.0902 57.056,-4.7481 l 9.07249,-0.26915 1.46717,3.51361 c 1.73849,4.16344 4.58714,12.52017 5.88202,17.25538 0.50822,1.85852 1.02531,3.73393 1.14912,4.16758 0.21176,0.74168 -0.86595,0.78863 -18.16512,0.79127 -64.71431,0.01 -125.21326,7.09921 -184.643,21.63666 -12.27528,3.00273 -30.28825,7.99358 -35.336,9.79054 -0.38938,0.13862 -0.57946,0.10812 -0.42241,-0.0678 z"
                 id="path3848"
                 inkscape:connector-curvature="0" />
              <path
                 style="fill:#000000;fill-opacity:1"
                 d="m 378.3259,734.97594 c -43.16091,-1.52808 -83.37928,-15.37486 -118.94505,-40.95156 -2.84973,-2.04933 -5.58682,-3.84179 -6.08242,-3.98318 -1.02226,-0.29164 1.06587,-0.10489 9.46154,0.84627 10.10611,1.14489 16.74679,1.5753 28.9058,1.87352 l 11.78492,0.28903 4.88541,-3.55277 c 10.92463,-7.94471 27.35333,-20.81277 36.64914,-28.70612 8.68743,-7.37671 13.06841,-11.28176 12.87442,-11.47577 -0.52348,-0.52349 -20.40865,-1.44072 -31.34695,-1.44595 -38.46483,-0.0185 -75.33858,5.13622 -95.29121,13.32086 -2.72582,1.11817 -5.17229,2.07248 -5.4366,2.12078 -0.57125,0.10435 -5.69094,-5.74716 -10.66525,-12.18971 -1.96112,-2.53997 -3.76549,-4.61813 -4.00971,-4.61813 -1.03477,0 -8.84567,8.426 -10.00144,10.78899 -2.89484,5.91869 -0.79312,11.96349 6.00861,17.28146 l 1.57692,1.23293 -4.50549,-1.55647 c -5.57179,-1.92484 -13.81012,-5.31594 -15.3235,-6.30751 -1.74076,-1.14061 -4.21624,-5.21025 -4.68687,-7.70512 -1.16371,-6.16897 3.35612,-12.95676 12.80158,-19.22511 15.14347,-10.04979 44.06689,-18.18781 80.52957,-22.65816 22.10823,-2.71048 37.7546,-3.59359 63.87153,-3.605 21.4599,-0.009 29.3163,0.29252 45.13879,1.73455 l 5.87831,0.53573 7.71947,-8.11283 c 4.24571,-4.46206 8.84082,-9.33414 10.21136,-10.82683 8.77888,-9.56132 23.69943,-27.1344 23.34208,-27.49175 -0.32454,-0.32453 -16.09074,-1.9761 -25.60869,-2.68262 -71.51483,-5.30851 -153.28849,3.33011 -204.92729,21.64864 -3.12019,1.10686 -8.57018,3.25504 -12.11109,4.77373 -3.54091,1.51869 -6.5573,2.64197 -6.70309,2.49618 -0.527,-0.52701 -5.94692,-16.90936 -7.41366,-22.40872 -0.82615,-3.09753 -1.53418,-5.68614 -1.57339,-5.75247 -0.13919,-0.23545 -11.75905,6.08267 -15.81737,8.60046 -14.70065,9.12027 -26.08261,22.07266 -28.57719,32.52014 -0.29585,1.23901 -0.6901,2.42238 -0.87612,2.6297 -0.3452,0.38473 -7.38527,-13.52953 -8.7809,-17.3549 l -0.76974,-2.10982 2.05956,-2.62095 c 17.75301,-22.59211 57.42196,-40.16624 118.26089,-52.3919 48.80374,-9.80718 115.78852,-15.05112 167.67993,-13.12692 21.98112,0.81509 47.18164,2.59086 55.24578,3.89292 1.36644,0.22063 1.51031,0.0685 5.22782,-5.52695 10.33162,-15.55082 25.62273,-41.23075 24.95089,-41.90259 -0.33417,-0.33417 -9.71826,-1.30797 -20.65492,-2.14339 -38.00851,-2.90336 -79.30417,-3.21247 -117.9344,-0.88277 -62.88469,3.79242 -120.13725,13.2155 -165.51603,27.24194 -7.20325,2.2265 -15.62157,5.07572 -19.39514,6.56436 -0.834,0.32901 -0.85161,0.11649 -0.54734,-6.60725 0.17291,-3.82096 0.59071,-9.27879 0.92843,-12.12851 0.33774,-2.84973 0.56506,-5.23408 0.50518,-5.29858 -0.21825,-0.23503 -13.78585,6.05509 -23.22785,10.76875 -9.52256,4.75387 -22.30459,11.87865 -29.62363,16.51239 -2.04436,1.29431 -3.71703,2.15485 -3.71703,1.91233 0,-0.76993 2.64939,-10.44648 4.01346,-14.65863 l 1.31316,-4.05494 11.19109,-5.72806 c 66.54552,-34.06075 157.62415,-56.75574 251.78449,-62.73972 41.59472,-2.64338 86.08793,-1.89177 120.97253,2.04355 14.28909,1.61194 12.90123,1.56834 13.51336,0.42457 1.98466,-3.70838 10.87736,-28.93457 13.97881,-39.65419 3.36862,-11.64294 4.03192,-14.45314 3.45706,-14.64696 -0.69348,-0.23382 -21.67112,-1.82637 -33.8778,-2.57189 -12.98716,-0.79318 -72.10892,-0.78587 -85.82967,0.0106 -61.22311,3.55397 -110.70258,10.48293 -158.36814,22.17741 -21.566,5.2911 -49.72245,13.83083 -61.65238,18.6989 -0.7173,0.29269 -0.66497,0.0158 0.39075,-2.06754 1.62727,-3.21127 7.71544,-13.33861 10.54774,-17.5456 1.25122,-1.85851 2.07716,-3.44541 1.83542,-3.52644 -0.67782,-0.22719 -20.61276,9.66726 -27.94021,13.86776 -3.59313,2.05979 -8.76319,5.19731 -11.48901,6.97227 -2.72582,1.77496 -5.26016,3.40937 -5.63187,3.63201 -2.25683,1.35178 17.5033,-21.25106 24.85028,-28.42528 l 4.66071,-4.55112 6.98352,-2.95976 c 37.21224,-15.77134 83.2825,-28.64213 130.88461,-36.56564 16.00117,-2.66344 26.55603,-4.20107 41.67583,-6.07134 50.44877,-6.24035 110.70262,-7.90897 162.77937,-4.50787 4.40863,0.28792 8.10313,0.43604 8.21005,0.32915 0.62788,-0.62789 1.20031,-9.67053 1.42829,-22.56312 l 0.261,-14.75947 5.68539,0.24999 c 3.12695,0.13749 6.52824,0.35164 7.55842,0.47587 l 1.87307,0.22588 0.31043,2.67455 c 0.79909,6.88517 0.17103,34.3017 -0.93787,40.93901 l -0.25555,1.52986 -4.36014,-0.28474 c -17.54372,-1.1457 -42.52862,-2.09569 -42.31989,-1.60911 0.0625,0.14562 3.15479,2.7014 6.87183,5.6795 18.56263,14.87245 33.62036,31.34926 46.44768,50.82495 41.38144,62.82948 47.25836,142.04235 15.6438,210.85714 -10.32169,22.4671 -25.2182,43.74606 -43.39107,61.98218 -11.72626,11.76705 -20.94324,19.33092 -34.24437,28.10235 -27.57194,18.18233 -57.7778,29.50504 -90.10989,33.77782 -9.70671,1.28276 -25.95411,2.10605 -35.14286,1.78071 z m -127.38347,-45.4922 c 0.14971,-0.14972 0.53831,-0.16571 0.86355,-0.0356 0.35942,0.14382 0.25266,0.2506 -0.27221,0.27223 -0.47495,0.0194 -0.74105,-0.087 -0.59134,-0.23668 z M 315.7598,296.25007 c 0.4167,-0.46666 11.27152,-5.74144 19.08808,-9.27564 47.70958,-21.57154 95.77653,-35.77225 144.85165,-42.79439 19.83472,-2.83814 34.88021,-4.0902 57.056,-4.7481 l 9.07249,-0.26915 1.46717,3.51361 c 1.73849,4.16344 4.58714,12.52017 5.88202,17.25538 0.50822,1.85852 1.02531,3.73393 1.14912,4.16758 0.21176,0.74168 -0.86595,0.78863 -18.16512,0.79127 -64.71431,0.01 -125.21326,7.09921 -184.643,21.63666 -12.27528,3.00273 -30.28825,7.99358 -35.336,9.79054 -0.38938,0.13862 -0.57946,0.10812 -0.42241,-0.0678 z"
                 id="path3846"
                 inkscape:connector-curvature="0" />
            </g>
          </g>
          <rect
             transform="translate(0,-0.00215091)"
             y="1087.7953"
             x="70.866142"
             height="35.433071"
             width="35.433071"
             id="rect3035"
             style="fill:none;stroke:none" />
        </g>
      </g>
      <path
         transform="translate(0,-0.00215091)"
         inkscape:connector-curvature="0"
         id="path910"
         d="m 41.351024,1045.1947 c -2.507075,-0.2366 -3.451876,-0.3935 -5.357143,-0.8896 -2.15706,-0.5616 -4.73022,-1.6274 -6.663801,-2.7601 -1.080393,-0.6328 -3.002413,-1.9236 -2.946951,-1.9791 0.02232,-0.022 0.636947,0.021 1.365843,0.096 0.728896,0.075 2.108748,0.163 3.066337,0.1958 l 1.741072,0.06 1.518131,-1.149 c 2.822028,-2.1359 5.587479,-4.4304 5.475181,-4.5427 -0.02224,-0.022 -0.987606,-0.083 -2.145263,-0.1357 -5.081773,-0.23 -10.643279,0.3955 -13.854236,1.5584 -0.484652,0.1755 -0.93522,0.3191 -1.001262,0.3191 -0.06604,0 -0.488339,-0.452 -0.938436,-1.0044 -0.450098,-0.5525 -0.857259,-1.0192 -0.904801,-1.0372 -0.122656,-0.046 -0.935139,0.7613 -1.2406,1.2332 -0.312358,0.4826 -0.334653,0.9487 -0.0714,1.4925 0.10204,0.2107 0.306015,0.4846 0.453279,0.6085 0.336402,0.2831 0.233477,0.2832 -0.516733,9e-4 -1.626422,-0.6122 -1.974217,-0.896 -2.062996,-1.6837 -0.06133,-0.5441 0.09806,-0.9554 0.576464,-1.4875 1.690839,-1.8806 6.147698,-3.2502 12.926959,-3.9723 0.6875,-0.073 2.550341,-0.1795 4.139649,-0.2361 2.740659,-0.098 4.575301,-0.064 8.494279,0.1578 l 0.669643,0.038 1.354048,-1.452 c 1.404683,-1.5064 3.869166,-4.3439 3.869166,-4.4548 0,-0.096 -0.3498,-0.1487 -1.964285,-0.2984 -10.070976,-0.9339 -21.666685,0.2946 -28.615101,3.0316 -0.786249,0.3097 -1.454667,0.5372 -1.485376,0.5056 -0.06185,-0.064 -0.675653,-1.9235 -0.970769,-2.9414 l -0.188965,-0.6518 -0.776145,0.4193 c -2.662165,1.4382 -4.259942,2.976 -4.884679,4.7014 l -0.193213,0.5336 -0.4086762,-0.7915 c -0.2247721,-0.4353 -0.4929059,-1.0052 -0.595853,-1.2665 l -0.1871764,-0.4751 0.9610123,-0.9612 c 0.5705483,-0.5707 1.2884683,-1.1778 1.7669483,-1.4943 5.288621,-3.4977 15.612936,-5.7493 28.462225,-6.2072 3.795724,-0.1352 8.253487,0.016 12.528435,0.4239 l 0.635883,0.061 0.667086,-1.0162 c 1.350402,-2.0572 3.095912,-5.0291 3.006359,-5.1186 -0.05537,-0.055 -2.384237,-0.2746 -4.364853,-0.4109 -2.281038,-0.1569 -8.717179,-0.2096 -11.339285,-0.093 -9.418164,0.4196 -17.736082,1.7515 -24.241015,3.8817 l -1.766649,0.5785 0.05898,-0.8645 c 0.03244,-0.4756 0.08422,-1.177 0.115066,-1.5588 0.05289,-0.6545 0.04643,-0.6908 -0.113181,-0.636 -0.522876,0.1794 -4.648299,2.2774 -5.748747,2.9235 -0.7115696,0.4178 -1.304982,0.7484 -1.3186942,0.7347 -0.039195,-0.039 0.6048196,-2.2316 0.6748241,-2.2972 0.1463185,-0.1373 3.5649101,-1.7989 4.8000281,-2.3331 10.166745,-4.3968 23.92282,-6.8714 36.914391,-6.6407 3.309961,0.059 4.772177,0.1411 7.493554,0.4221 1.412435,0.1459 1.754907,0.1578 1.843819,0.064 0.300375,-0.316 2.26977,-6.2307 2.26977,-6.81691 0,-0.25071 -0.02138,-0.25434 -2.678572,-0.45529 -2.840235,-0.21478 -11.473206,-0.21368 -14.419643,0.002 -6.766585,0.49495 -11.91806,1.2138 -17.142294,2.3921 -2.688566,0.6064 -7.052684,1.8554 -8.860985,2.536 -0.322662,0.1215 -0.596978,0.2103 -0.609591,0.1974 -0.02934,-0.03 0.558722,-1.0485 1.188949,-2.059 0.269427,-0.432 0.464648,-0.8107 0.433824,-0.8415 -0.08553,-0.086 -3.002993,1.3982 -4.340506,2.2075 -0.652564,0.3948 -1.200171,0.7042 -1.216904,0.6874 -0.05111,-0.051 2.004021,-2.3775 2.863682,-3.2417 l 0.808825,-0.8131 1.830357,-0.71795 c 5.889962,-2.31011 12.165251,-3.86191 19.755013,-4.88519 6.750669,-0.91015 14.033705,-1.17464 22.03914,-0.80037 l 1.392368,0.0651 0.05906,-0.21416 c 0.03248,-0.11779 0.08531,-1.18849 0.117407,-2.37934 l 0.05835,-2.16518 H 64.1653 c 0.304512,0 0.740068,0.0256 0.967905,0.0568 l 0.414247,0.0568 -0.01109,2.19768 c -0.0061,1.20873 -0.03623,2.47894 -0.06696,2.82269 l -0.05587,0.625 -0.714286,-0.005 c -0.392857,-0.003 -1.758929,-0.0392 -3.035714,-0.0811 l -2.321429,-0.0762 1.160714,0.96771 c 4.211268,3.51101 7.200223,7.81971 8.876382,12.79561 1.894604,5.6244 1.924407,11.8031 0.08437,17.4917 -1.388302,4.2921 -3.592661,7.8856 -6.833264,11.1394 -1.304969,1.3103 -2.268683,2.1328 -3.556059,3.0351 -4.317479,3.0257 -8.937583,4.6822 -14.0625,5.0419 -1.212945,0.085 -2.950965,0.1016 -3.660714,0.035 z"
         style="fill:#ff0000;fill-opacity:1;stroke:#ff0000;stroke-width:0.377953;stroke-linecap:round;stroke-linejoin:round;stroke-miterlimit:4;stroke-dasharray:none;stroke-dashoffset:0;stroke-opacity:1;paint-order:fill markers stroke" />
      <path
         transform="translate(0,-0.00215091)"
         inkscape:connector-curvature="0"
         id="path912"
         d="m 35.115102,988.38483 c 0.277833,-0.1482 1.10004,-0.53594 1.827127,-0.86164 6.926145,-3.10264 14.58001,-5.13198 21.68558,-5.7497 1.048506,-0.0912 5.063233,-0.28479 5.096359,-0.24581 0.0092,0.0109 0.158543,0.40142 0.331831,0.86794 0.428718,1.15418 0.729862,2.21991 0.649908,2.29998 -0.0363,0.0363 -1.740153,0.0922 -3.786336,0.12414 -3.65495,0.057 -4.933582,0.11952 -8.05069,0.3935 -5.299635,0.46581 -11.279315,1.53503 -16.258518,2.90717 -2.125994,0.58587 -2.083976,0.57844 -1.495261,0.26442 z"
         style="fill:#ff0000;fill-opacity:1;stroke:#ff0000;stroke-width:0.377953;stroke-linecap:round;stroke-linejoin:round;stroke-miterlimit:4;stroke-dasharray:none;stroke-dashoffset:0;stroke-opacity:1;paint-order:fill markers stroke" />
    </g>
  </g>
</svg>
